<svg width="400" height="400" viewBox="0 0 400 400" fill="none" xmlns="http://www.w3.org/2000/svg">
  <defs>
    <linearGradient id="grad1" x1="0%" y1="0%" x2="100%" y2="100%">
      <stop offset="0%" style="stop-color:#6366F1;stop-opacity:1" />
      <stop offset="100%" style="stop-color:#8B5CF6;stop-opacity:1" />
    </linearGradient>
    <linearGradient id="grad2" x1="0%" y1="0%" x2="100%" y2="100%">
      <stop offset="0%" style="stop-color:#3B82F6;stop-opacity:1" />
      <stop offset="100%" style="stop-color:#6D28D9;stop-opacity:1" />
    </linearGradient>
    <filter id="shadow" x="-20%" y="-20%" width="140%" height="140%">
      <feGaussianBlur in="SourceAlpha" stdDeviation="5"/>
      <feOffset dx="0" dy="4" result="offsetblur"/>
      <feComponentTransfer>
        <feFuncA type="linear" slope="0.3"/>
      </feComponentTransfer>
      <feMerge> 
        <feMergeNode/>
        <feMergeNode in="SourceGraphic"/> 
      </feMerge>
    </filter>
  </defs>

  <!-- Background shapes -->
  <circle cx="200" cy="200" r="180" fill="url(#grad1)" opacity="0.1"/>
  <path d="M 50,50 Q 200,0 350,50 L 350,350 Q 200,400 50,350 Z" fill="url(#grad2)" opacity="0.1"/>

  <!-- Central floating card -->
  <g filter="url(#shadow)">
    <rect x="100" y="100" width="200" height="200" rx="20" fill="rgba(255,255,255,0.8)" stroke="rgba(255,255,255,0.5)" stroke-width="2"/>
    <path d="M130 140 L170 140" stroke="url(#grad1)" stroke-width="4" stroke-linecap="round"/>
    <path d="M130 160 L240 160" stroke="#E5E7EB" stroke-width="4" stroke-linecap="round"/>
    <path d="M130 180 L270 180" stroke="#E5E7EB" stroke-width="4" stroke-linecap="round"/>
    <rect x="220" y="210" width="50" height="20" rx="5" fill="url(#grad2)"/>
  </g>

  <!-- Floating decorative elements -->
  <g filter="url(#shadow)">
    <circle cx="80" cy="280" r="25" fill="url(#grad2)"/>
    <rect x="290" y="70" width="50" height="50" rx="10" fill="url(#grad1)" transform="rotate(30 290 70)"/>
    <circle cx="330" cy="250" r="15" fill="rgba(255,255,255,0.9)"/>
    <path d="M 70,80 a 20,20 0 1,1 40,0 a 20,20 0 1,1 -40,0" fill="#A78BFA"/>
  </g>
  
  <!-- Connecting lines -->
  <path d="M100 120 C 50 100, 70 250, 80 280" stroke="#D1D5DB" stroke-width="2" fill="none" stroke-dasharray="4 4"/>
  <path d="M300 120 C 350 100, 350 220, 330 250" stroke="#D1D5DB" stroke-width="2" fill="none" stroke-dasharray="4 4"/>
</svg> 